<svg width="17" height="16" viewBox="0 0 17 16" fill="none" xmlns="http://www.w3.org/2000/svg">
<path d="M4.15749 5.32673V15.834H0.658604V5.32673H4.15749ZM4.38014 2.08231C4.38721 2.59831 4.20873 3.02948 3.84471 3.37584C3.48068 3.72219 3.0018 3.89537 2.40805 3.89537H2.38684C1.80723 3.89537 1.34071 3.72219 0.987287 3.37584C0.633865 3.02948 0.457153 2.59831 0.457153 2.08231C0.457153 1.55925 0.639166 1.1263 1.00319 0.783483C1.36722 0.440662 1.84257 0.269253 2.42925 0.269253C3.01593 0.269253 3.48599 0.440662 3.83941 0.783483C4.19283 1.1263 4.37308 1.55925 4.38014 2.08231ZM16.7429 9.81166V15.834H13.2546V10.2146C13.2546 9.47238 13.1115 8.891 12.8252 8.47042C12.5389 8.04985 12.0918 7.83956 11.4839 7.83956C11.0386 7.83956 10.6658 7.9615 10.3654 8.20536C10.0649 8.44922 9.84052 8.7514 9.69209 9.11189C9.61433 9.32394 9.57546 9.61021 9.57546 9.9707V15.834H6.08718C6.10131 13.0137 6.10838 10.727 6.10838 8.97405C6.10838 7.22108 6.10485 6.17494 6.09778 5.83566L6.08718 5.32673H9.57546V6.85352H9.55425C9.69562 6.62733 9.84052 6.42941 9.98896 6.25977C10.1374 6.09012 10.3371 5.90634 10.588 5.70843C10.8389 5.51051 11.1464 5.35677 11.5104 5.24721C11.8745 5.13765 12.2791 5.08287 12.7245 5.08287C13.9332 5.08287 14.9051 5.484 15.6402 6.28627C16.3753 7.08854 16.7429 8.26367 16.7429 9.81166Z" fill="#EF5A0F"/>
</svg>
