<svg width="18" height="14" viewBox="0 0 18 14" fill="none" xmlns="http://www.w3.org/2000/svg">
<path d="M17.4684 2.02602C16.9948 2.71873 16.4222 3.30894 15.7507 3.79667C15.7578 3.89562 15.7613 4.04406 15.7613 4.24198C15.7613 5.16088 15.627 6.07801 15.3584 6.99337C15.0898 7.90874 14.6816 8.78699 14.1338 9.62814C13.586 10.4693 12.934 11.2132 12.1776 11.86C11.4213 12.5068 10.5095 13.0228 9.44214 13.408C8.3748 13.7932 7.23325 13.9858 6.01747 13.9858C4.10192 13.9858 2.34895 13.4734 0.758545 12.4485C1.00594 12.4767 1.28161 12.4909 1.58555 12.4909C3.17596 12.4909 4.59318 12.0031 5.83723 11.0277C5.09504 11.0136 4.43061 10.7856 3.84392 10.3438C3.25724 9.90204 2.85434 9.33833 2.63522 8.65269C2.86848 8.68804 3.08407 8.70571 3.28198 8.70571C3.58593 8.70571 3.88634 8.66683 4.18321 8.58908C3.39154 8.4265 2.73594 8.03244 2.21641 7.40688C1.69688 6.78132 1.43712 6.05504 1.43712 5.22803V5.18562C1.91777 5.45422 2.43377 5.59912 2.98511 5.62033C2.51859 5.30931 2.1475 4.90288 1.87183 4.40102C1.59616 3.89916 1.45832 3.35489 1.45832 2.76821C1.45832 2.14618 1.61383 1.5701 1.92484 1.03997C2.78012 2.09317 3.82095 2.93608 5.04733 3.56871C6.27371 4.20133 7.58667 4.55299 8.98622 4.62368C8.92968 4.35507 8.9014 4.09354 8.9014 3.83908C8.9014 2.8919 9.23539 2.08433 9.90336 1.41636C10.5713 0.748396 11.3789 0.414412 12.3261 0.414412C13.3157 0.414412 14.1497 0.774903 14.8283 1.49588C15.5988 1.34745 16.3233 1.07178 17.0019 0.668876C16.7403 1.48175 16.2385 2.11084 15.4963 2.55615C16.1536 2.48547 16.811 2.30876 17.4684 2.02602Z" fill="#EF5A0F"/>
</svg>
