<svg width="18" height="18" viewBox="0 0 18 18" fill="none" xmlns="http://www.w3.org/2000/svg">
<path d="M12.8301 11.255H12.0401L11.7601 10.985C12.774 9.80903 13.3312 8.3077 13.3301 6.75501C13.3301 5.46943 12.9489 4.21272 12.2346 3.1438C11.5204 2.07488 10.5052 1.24176 9.31752 0.749791C8.1298 0.257821 6.82287 0.1291 5.56199 0.379903C4.30112 0.630707 3.14293 1.24977 2.23389 2.15881C1.32485 3.06785 0.705781 4.22604 0.454977 5.48692C0.204173 6.7478 0.332894 8.05473 0.824864 9.24245C1.31683 10.4302 2.14996 11.4453 3.21887 12.1596C4.28779 12.8738 5.5445 13.255 6.83008 13.255C8.44008 13.255 9.92008 12.665 11.0601 11.685L11.3301 11.965V12.755L16.3301 17.745L17.8201 16.255L12.8301 11.255ZM6.83008 11.255C4.34008 11.255 2.33008 9.24501 2.33008 6.75501C2.33008 4.26501 4.34008 2.25501 6.83008 2.25501C9.32008 2.25501 11.3301 4.26501 11.3301 6.75501C11.3301 9.24501 9.32008 11.255 6.83008 11.255Z" fill="black"/>
</svg>
