<svg width="128" height="102" viewBox="0 0 128 102" fill="none" xmlns="http://www.w3.org/2000/svg">
<path d="M39.625 49C46.0897 49 52.2895 46.4319 56.8607 41.8607C61.4319 37.2895 64 31.0897 64 24.625C64 18.1603 61.4319 11.9605 56.8607 7.38927C52.2895 2.81807 46.0897 0.25 39.625 0.25C33.1604 0.25 26.9605 2.81807 22.3893 7.38927C17.8181 11.9605 15.25 18.1603 15.25 24.625C15.25 31.0897 17.8181 37.2895 22.3893 41.8607C26.9605 46.4319 33.1604 49 39.625 49ZM82.2775 87.5875C86.2525 89.215 91.3075 90.25 97.7425 90.25C127.743 90.25 127.743 67.75 127.743 67.75C127.743 64.7676 126.558 61.9073 124.45 59.7977C122.342 57.6881 119.482 56.502 116.5 56.5H81.79C84.7375 60.07 86.5075 64.6375 86.5075 69.625V72.295C86.4921 72.9265 86.4496 73.5571 86.38 74.185C85.8739 78.8711 84.4769 83.4188 82.2775 87.5875ZM116.5 30.25C116.5 35.2228 114.525 39.9919 111.008 43.5083C107.492 47.0246 102.723 49 97.75 49C92.7772 49 88.0081 47.0246 84.4918 43.5083C80.9754 39.9919 79 35.2228 79 30.25C79 25.2772 80.9754 20.5081 84.4918 16.9917C88.0081 13.4754 92.7772 11.5 97.75 11.5C102.723 11.5 107.492 13.4754 111.008 16.9917C114.525 20.5081 116.5 25.2772 116.5 30.25ZM0.25 71.5C0.25 67.5218 1.83035 63.7064 4.6434 60.8934C7.45644 58.0804 11.2718 56.5 15.25 56.5H64C67.9782 56.5 71.7936 58.0804 74.6066 60.8934C77.4197 63.7064 79 67.5218 79 71.5C79 71.5 79 101.5 39.625 101.5C0.25 101.5 0.25 71.5 0.25 71.5Z" fill="#055088"/>
</svg>
