<svg width="120" height="120" viewBox="0 0 120 120" fill="none" xmlns="http://www.w3.org/2000/svg">
<path d="M53.7499 22.5H72.4999L93.0625 1.87498C93.6435 1.28918 94.3347 0.824218 95.0963 0.506913C95.858 0.189609 96.6749 0.0262451 97.4999 0.0262451C98.325 0.0262451 99.1419 0.189609 99.9035 0.506913C100.665 0.824218 101.356 1.28918 101.937 1.87498L118.062 18.0625C119.227 19.2335 119.88 20.8176 119.88 22.4687C119.88 24.1199 119.227 25.704 118.062 26.875L103.75 41.25H53.7499V53.75C53.7499 55.4076 53.0915 56.9973 51.9194 58.1694C50.7473 59.3415 49.1576 60 47.4999 60C45.8423 60 44.2526 59.3415 43.0805 58.1694C41.9084 56.9973 41.2499 55.4076 41.2499 53.75V35C41.2499 31.6848 42.5669 28.5054 44.9111 26.1611C47.2553 23.8169 50.4347 22.5 53.7499 22.5ZM16.2499 53.75V78.75L1.93745 93.0625C0.773381 94.2335 0.119995 95.8176 0.119995 97.4687C0.119995 99.1199 0.773381 100.704 1.93745 101.875L18.0624 118.062C18.6435 118.648 19.3347 119.113 20.0963 119.431C20.858 119.748 21.6749 119.911 22.4999 119.911C23.325 119.911 24.1419 119.748 24.9036 119.431C25.6652 119.113 26.3564 118.648 26.9374 118.062L53.7499 91.25H78.7499C80.4076 91.25 81.9973 90.5915 83.1694 89.4194C84.3415 88.2473 84.9999 86.6576 84.9999 85V78.75H91.2499C92.9076 78.75 94.4973 78.0915 95.6694 76.9194C96.8415 75.7473 97.4999 74.1576 97.4999 72.5V66.25H103.75C105.408 66.25 106.997 65.5915 108.169 64.4194C109.341 63.2473 110 61.6576 110 60V53.75H66.2499V60C66.2499 63.3152 64.933 66.4946 62.5888 68.8388C60.2446 71.183 57.0652 72.5 53.7499 72.5H41.2499C37.9347 72.5 34.7553 71.183 32.4111 68.8388C30.0669 66.4946 28.7499 63.3152 28.7499 60V41.25L16.2499 53.75Z" fill="#055088"/>
</svg>
