<svg width="17" height="17" viewBox="0 0 17 17" fill="none" xmlns="http://www.w3.org/2000/svg">
<path d="M10.7691 10.1195C10.7691 10.1195 10.9016 9.98696 11.1667 9.72189C11.4318 9.45682 11.5643 8.94966 11.5643 8.20041C11.5643 7.45115 11.2992 6.81145 10.7691 6.28132C10.239 5.75119 9.59927 5.48612 8.85001 5.48612C8.10075 5.48612 7.46106 5.75119 6.93093 6.28132C6.40079 6.81145 6.13572 7.45115 6.13572 8.20041C6.13572 8.94966 6.40079 9.58936 6.93093 10.1195C7.46106 10.6496 8.10075 10.9147 8.85001 10.9147C9.59927 10.9147 10.239 10.6496 10.7691 10.1195ZM11.8082 5.24226C11.8082 5.24226 12.0114 5.44548 12.4178 5.85191C12.8242 6.25835 13.0275 7.04118 13.0275 8.20041C13.0275 9.35963 12.621 10.3457 11.8082 11.1586C10.9953 11.9714 10.0092 12.3779 8.85001 12.3779C7.69078 12.3779 6.70473 11.9714 5.89186 11.1586C5.07899 10.3457 4.67255 9.35963 4.67255 8.20041C4.67255 7.04118 5.07899 6.05513 5.89186 5.24226C6.70473 4.42939 7.69078 4.02295 8.85001 4.02295C10.0092 4.02295 10.9953 4.42939 11.8082 5.24226ZM13.8863 3.16413C13.8863 3.16413 13.934 3.21184 14.0294 3.30727C14.1248 3.40269 14.1726 3.58471 14.1726 3.85331C14.1726 4.12191 14.0771 4.35163 13.8863 4.54248C13.6954 4.73333 13.4657 4.82875 13.1971 4.82875C12.9285 4.82875 12.6988 4.73333 12.5079 4.54248C12.3171 4.35163 12.2217 4.12191 12.2217 3.85331C12.2217 3.58471 12.3171 3.35498 12.5079 3.16413C12.6988 2.97328 12.9285 2.87786 13.1971 2.87786C13.4657 2.87786 13.6954 2.97328 13.8863 3.16413ZM9.66111 1.51542C9.66111 1.51542 9.5383 1.5163 9.29267 1.51807C9.04704 1.51983 8.89949 1.52072 8.85001 1.52072C8.80053 1.52072 8.53016 1.51895 8.03891 1.51542C7.54765 1.51188 7.17479 1.51188 6.92032 1.51542C6.66586 1.51895 6.32481 1.52955 5.89716 1.54722C5.46952 1.5649 5.1055 1.60024 4.80509 1.65325C4.50468 1.70626 4.25198 1.77165 4.047 1.8494C3.69357 1.99077 3.38256 2.19576 3.11396 2.46436C2.84536 2.73296 2.64038 3.04397 2.49901 3.39739C2.42125 3.60238 2.35587 3.85507 2.30286 4.15548C2.24984 4.45589 2.2145 4.81992 2.19683 5.24756C2.17916 5.6752 2.16856 6.01625 2.16502 6.27072C2.16149 6.52518 2.16149 6.89804 2.16502 7.3893C2.16856 7.88056 2.17032 8.15093 2.17032 8.20041C2.17032 8.24988 2.16856 8.52025 2.16502 9.01151C2.16149 9.50277 2.16149 9.87563 2.16502 10.1301C2.16856 10.3846 2.17916 10.7256 2.19683 11.1533C2.2145 11.5809 2.24984 11.9449 2.30286 12.2453C2.35587 12.5457 2.42125 12.7984 2.49901 13.0034C2.64038 13.3568 2.84536 13.6679 3.11396 13.9365C3.38256 14.2051 3.69357 14.41 4.047 14.5514C4.25198 14.6292 4.50468 14.6945 4.80509 14.7476C5.1055 14.8006 5.46952 14.8359 5.89716 14.8536C6.32481 14.8713 6.66586 14.8819 6.92032 14.8854C7.17479 14.8889 7.54765 14.8889 8.03891 14.8854C8.53016 14.8819 8.80053 14.8801 8.85001 14.8801C8.89949 14.8801 9.16986 14.8819 9.66111 14.8854C10.1524 14.8889 10.5252 14.8889 10.7797 14.8854C11.0342 14.8819 11.3752 14.8713 11.8029 14.8536C12.2305 14.8359 12.5945 14.8006 12.8949 14.7476C13.1953 14.6945 13.448 14.6292 13.653 14.5514C14.0064 14.41 14.3175 14.2051 14.5861 13.9365C14.8547 13.6679 15.0596 13.3568 15.201 13.0034C15.2788 12.7984 15.3442 12.5457 15.3972 12.2453C15.4502 11.9449 15.4855 11.5809 15.5032 11.1533C15.5209 10.7256 15.5315 10.3846 15.535 10.1301C15.5385 9.87563 15.5385 9.50277 15.535 9.01151C15.5315 8.52025 15.5297 8.24988 15.5297 8.20041C15.5297 8.15093 15.5315 7.88056 15.535 7.3893C15.5385 6.89804 15.5385 6.52518 15.535 6.27072C15.5315 6.01625 15.5209 5.6752 15.5032 5.24756C15.4855 4.81992 15.4502 4.45589 15.3972 4.15548C15.3442 3.85507 15.2788 3.60238 15.201 3.39739C15.0596 3.04397 14.8547 2.73296 14.5861 2.46436C14.3175 2.19576 14.0064 1.99077 13.653 1.8494C13.448 1.77165 13.1953 1.70626 12.8949 1.65325C12.5945 1.60024 12.2305 1.5649 11.8029 1.54722C11.3752 1.52955 11.0342 1.51895 10.7797 1.51542C10.5252 1.51188 10.1524 1.51188 9.66111 1.51542ZM16.9399 4.83936C16.9752 5.46138 16.9929 6.58173 16.9929 8.20041C16.9929 9.81908 16.9752 10.9394 16.9399 11.5615C16.8692 13.0317 16.4309 14.1697 15.6251 14.9755C14.8193 15.7813 13.6813 16.2196 12.2111 16.2902C11.589 16.3256 10.4687 16.3433 8.85001 16.3433C7.23133 16.3433 6.11098 16.3256 5.48896 16.2902C4.01872 16.2196 2.8807 15.7813 2.0749 14.9755C1.2691 14.1697 0.830851 13.0317 0.760167 11.5615C0.724824 10.9394 0.707153 9.81908 0.707153 8.20041C0.707153 6.58173 0.724824 5.46138 0.760167 4.83936C0.830851 3.36912 1.2691 2.2311 2.0749 1.42529C2.8807 0.61949 4.01872 0.181246 5.48896 0.110561C6.11098 0.0752201 7.23133 0.0575485 8.85001 0.0575485C10.4687 0.0575485 11.589 0.0752201 12.2111 0.110561C13.6813 0.181246 14.8193 0.61949 15.6251 1.42529C16.4309 2.2311 16.8692 3.36912 16.9399 4.83936Z" fill="#EF5A0F"/>
</svg>
