<svg width="17" height="20" viewBox="0 0 17 20" fill="none" xmlns="http://www.w3.org/2000/svg">
<path d="M10.426 13.8899V16.1271C10.426 16.6007 10.2882 16.8375 10.0125 16.8375C9.84996 16.8375 9.69092 16.7597 9.53542 16.6042V13.4128C9.69092 13.2573 9.84996 13.1795 10.0125 13.1795C10.2882 13.1795 10.426 13.4163 10.426 13.8899ZM14.0097 13.9005V14.3883H13.0555V13.9005C13.0555 13.4199 13.2145 13.1795 13.5326 13.1795C13.8507 13.1795 14.0097 13.4199 14.0097 13.9005ZM3.76756 11.5891H4.90205V10.5925H1.59401V11.5891H2.70729V17.6221H3.76756V11.5891ZM6.82113 17.6221H7.76477V12.3843H6.82113V16.3922C6.60908 16.689 6.40763 16.8375 6.21678 16.8375C6.08955 16.8375 6.01533 16.7633 5.99412 16.6148C5.98705 16.5936 5.98352 16.4699 5.98352 16.2437V12.3843H5.03988V16.53C5.03988 16.8763 5.06816 17.1343 5.1247 17.304C5.20952 17.5655 5.41451 17.6963 5.73966 17.6963C6.07894 17.6963 6.43944 17.4807 6.82113 17.0495V17.6221ZM11.3697 16.0529V13.9641C11.3697 13.4481 11.3379 13.0983 11.2743 12.9145C11.1541 12.5186 10.9032 12.3207 10.5215 12.3207C10.168 12.3207 9.83936 12.5116 9.53542 12.8933V10.5925H8.59178V17.6221H9.53542V17.1131C9.8535 17.5019 10.1822 17.6963 10.5215 17.6963C10.9032 17.6963 11.1541 17.5019 11.2743 17.1131C11.3379 16.9223 11.3697 16.5689 11.3697 16.0529ZM14.9534 15.9468V15.809H13.9885C13.9885 16.1695 13.9815 16.3851 13.9673 16.4558C13.9179 16.7102 13.7765 16.8375 13.5432 16.8375C13.2181 16.8375 13.0555 16.5936 13.0555 16.1059V15.1835H14.9534V14.0914C14.9534 13.533 14.858 13.123 14.6671 12.8615C14.3914 12.501 14.0168 12.3207 13.5432 12.3207C13.0626 12.3207 12.6844 12.501 12.4087 12.8615C12.2108 13.123 12.1119 13.533 12.1119 14.0914V15.9256C12.1119 16.484 12.2144 16.894 12.4193 17.1556C12.695 17.516 13.0767 17.6963 13.5644 17.6963C14.0734 17.6963 14.4551 17.509 14.7095 17.1343C14.8368 16.9435 14.911 16.7527 14.9322 16.5618C14.9463 16.4982 14.9534 16.2932 14.9534 15.9468ZM8.50696 6.2666V4.04004C8.50696 3.55232 8.35499 3.30845 8.05104 3.30845C7.7471 3.30845 7.59513 3.55232 7.59513 4.04004V6.2666C7.59513 6.76139 7.7471 7.00879 8.05104 7.00879C8.35499 7.00879 8.50696 6.76139 8.50696 6.2666ZM16.1303 14.2292C16.1303 15.8832 16.0384 17.1202 15.8546 17.9402C15.7557 18.3572 15.5507 18.7071 15.2397 18.9898C14.9286 19.2726 14.5682 19.4351 14.1582 19.4775C12.8576 19.626 10.8961 19.7002 8.2737 19.7002C5.6513 19.7002 3.68981 19.626 2.38921 19.4775C1.97924 19.4351 1.61698 19.2726 1.30244 18.9898C0.987892 18.7071 0.784674 18.3572 0.692784 17.9402C0.509004 17.1485 0.417114 15.9115 0.417114 14.2292C0.417114 12.5752 0.509004 11.3382 0.692784 10.5183C0.791742 10.1012 0.996727 9.75135 1.30774 9.46861C1.61875 9.18587 1.98278 9.01976 2.39982 8.97029C3.69334 8.82892 5.6513 8.75823 8.2737 8.75823C10.8961 8.75823 12.8576 8.82892 14.1582 8.97029C14.5682 9.01976 14.9304 9.18587 15.245 9.46861C15.5595 9.75135 15.7627 10.1012 15.8546 10.5183C16.0384 11.3099 16.1303 12.5469 16.1303 14.2292ZM5.54881 0.700195H6.63028L5.34736 4.93067V7.80399H4.28709V4.93067C4.18813 4.4076 3.97255 3.65834 3.64033 2.6829C3.3788 1.95485 3.14907 1.29395 2.95115 0.700195H4.07504L4.82783 3.4887L5.54881 0.700195ZM9.4718 4.23089V6.08636C9.4718 6.6589 9.37284 7.07594 9.17493 7.33747C8.90633 7.69796 8.5317 7.87821 8.05104 7.87821C7.57746 7.87821 7.20636 7.69796 6.93776 7.33747C6.73984 7.06887 6.64089 6.65183 6.64089 6.08636V4.23089C6.64089 3.66541 6.73984 3.25191 6.93776 2.99037C7.20636 2.62988 7.57746 2.44964 8.05104 2.44964C8.5317 2.44964 8.90633 2.62988 9.17493 2.99037C9.37284 3.25191 9.4718 3.66541 9.4718 4.23089ZM13.0237 2.51325V7.80399H12.0589V7.22084C11.6842 7.65909 11.3202 7.87821 10.9668 7.87821C10.6416 7.87821 10.4331 7.74744 10.3412 7.48591C10.2847 7.31627 10.2564 7.0512 10.2564 6.69071V2.51325H11.2212V6.40444C11.2212 6.6377 11.2248 6.76139 11.2318 6.77553C11.2531 6.93104 11.3273 7.00879 11.4545 7.00879C11.6454 7.00879 11.8468 6.85682 12.0589 6.55287V2.51325H13.0237Z" fill="#EF5A0F"/>
</svg>
