<svg width="150" height="120" viewBox="0 0 150 120" fill="none" xmlns="http://www.w3.org/2000/svg">
<path d="M48.7504 82.4155C48.1902 82.4155 47.6301 82.4974 47.0957 82.6707C44.0582 83.6564 40.8637 84.2885 37.5004 84.2885C34.1371 84.2885 30.9426 83.6564 27.9027 82.6707C27.3684 82.4974 26.8105 82.4155 26.2504 82.4155C11.7051 82.4155 -0.0769651 94.2346 0.000378628 108.784C0.0331911 114.932 5.09335 119.877 11.2504 119.877H63.7504C69.9074 119.877 74.9676 114.932 75.0004 108.784C75.0777 94.2346 63.2957 82.4155 48.7504 82.4155ZM37.5004 74.9232C49.9269 74.9232 60.0004 64.86 60.0004 52.4462C60.0004 40.0324 49.9269 29.9693 37.5004 29.9693C25.0738 29.9693 15.0004 40.0324 15.0004 52.4462C15.0004 64.86 25.0738 74.9232 37.5004 74.9232ZM138.75 0H48.7504C42.5465 0 37.5004 5.2095 37.5004 11.6107V22.4769C42.9894 22.4769 48.0707 24.0644 52.5004 26.6445V14.9846H135V82.4155H120V67.4308H90.0004V82.4155H72.1316C76.6082 86.3232 79.8941 91.4835 81.434 97.4001H138.75C144.954 97.4001 150 92.1906 150 85.7894V11.6107C150 5.2095 144.954 0 138.75 0Z" fill="#055088"/>
</svg>
